HIERARCHY
ROOT Hips
{
	OFFSET 0.000000 0.000000 0.000000 
	CHANNELS 6 Xposition Yposition Zposition Zrotation Yrotation Xrotation
	JOINT LeftUpLeg
	{
		OFFSET 1.363060 -1.794630 0.839290 
		CHANNELS 3 Zrotation Yrotation Xrotation
		JOINT LeftLeg
		{
			OFFSET 2.448110 -6.726130 0.000000 
			CHANNELS 3 Zrotation Yrotation Xrotation
			JOINT LeftFoot
			{
				OFFSET 2.562200 -7.039590 0.000000 
				CHANNELS 3 Zrotation Yrotation Xrotation
				JOINT LeftToeBase
				{
					OFFSET 0.157640 -0.433110 2.322550 
					CHANNELS 3 Zrotation Yrotation Xrotation
					End Site
					{
						OFFSET 0.000000 0.000000 0.000000 
					}
				}
			}
		}
	}
	JOINT RightUpLeg
	{
		OFFSET -1.305520 -1.794630 0.839290 
		CHANNELS 3 Zrotation Yrotation Xrotation
		JOINT RightLeg
		{
			OFFSET -2.542530 -6.985550 0.000000 
			CHANNELS 3 Zrotation Yrotation Xrotation
			JOINT RightFoot
			{
				OFFSET -2.568260 -7.056230 0.000000 
				CHANNELS 3 Zrotation Yrotation Xrotation
				JOINT RightToeBase
				{
					OFFSET -0.164730 -0.452590 2.363150 
					CHANNELS 3 Zrotation Yrotation Xrotation
					End Site
					{
						OFFSET 0.000000 0.000000 0.000000 
					}
				}
			}
		}
	}
	JOINT Spine
	{
		OFFSET 0.028270 2.035590 -0.193380 
		CHANNELS 3 Zrotation Yrotation Xrotation
		JOINT Spine1
		{
			OFFSET 0.056720 2.048850 -0.042750 
			CHANNELS 3 Zrotation Yrotation Xrotation
			JOINT Neck1
			{
				OFFSET -0.054170 1.746240 0.172020 
				CHANNELS 3 Zrotation Yrotation Xrotation
				JOINT Head
				{
					OFFSET 0.104070 1.761360 -0.123970 
					CHANNELS 3 Zrotation Yrotation Xrotation
					End Site
					{
						OFFSET 0.000000 0.000000 0.000000 
					}
				}
			}
			JOINT LeftArm
			{
				OFFSET 3.362410 1.200890 -0.311210 
				CHANNELS 3 Zrotation Yrotation Xrotation
				JOINT LeftForeArm
				{
					OFFSET 4.983000 -0.000000 -0.000000 
					CHANNELS 3 Zrotation Yrotation Xrotation
					JOINT LeftHand
					{
						OFFSET 3.483560 -0.000000 -0.000000 
						CHANNELS 3 Zrotation Yrotation Xrotation
						JOINT LeftHandIndex1
						{
							OFFSET 0.715260 -0.000000 -0.000000 
							CHANNELS 3 Zrotation Yrotation Xrotation
							End Site
							{
								OFFSET 0.000000 0.000000 0.000000 
							}
						}
					}
				}
			}
			JOINT RightArm
			{
				OFFSET -3.136600 1.374050 -0.404650 
				CHANNELS 3 Zrotation Yrotation Xrotation
				JOINT RightForeArm
				{
					OFFSET -5.241900 -0.000000 -0.000000 
					CHANNELS 3 Zrotation Yrotation Xrotation
					JOINT RightHand
					{
						OFFSET -3.444170 -0.000000 -0.000000 
						CHANNELS 3 Zrotation Yrotation Xrotation
						JOINT RightHandIndex1
						{
							OFFSET -0.622530 -0.000000 -0.000000 
							CHANNELS 3 Zrotation Yrotation Xrotation
							End Site
							{
								OFFSET 0.000000 0.000000 0.000000 
							}
						}
					}
				}
			}
		}
	}
}
MOTION
Frames: 12
Frame Time: 0.041667
-0.721827 18.369001 5.268308 -0.493418 -3.400404 0.132725 -13.229975 -11.181289 -4.774205 0.640071 6.405108 21.736048 -1.450652 11.039222 -18.069310 7.812600 -15.979600 -51.884700 2.757203 2.016103 -1.345385 0.025631 0.937872 1.485584 0.356814 -0.619662 5.716615 0.000000 0.000000 0.000000 -9.249813 3.928796 36.579387 0.907000 1.891255 -12.401084 6.934004 -1.853527 4.952436 1.694100 -0.978700 2.804100 -53.558302 -27.969385 48.761367 155.742427 -31.103652 -112.831318 -1.282892 -0.431946 -46.563262 -7.125000 0.000000 0.000000 59.054156 21.539343 44.494765 -157.189720 27.928814 -113.512000 -0.653907 1.938049 -24.721930 7.125000 0.000000 0.000000 
-0.722023 18.368413 5.270464 -0.414042 -3.408994 0.147613 -13.300224 -11.140892 -4.781065 0.634698 6.397565 21.708411 -1.469102 11.097551 -18.031914 7.821800 -15.986600 -51.918400 2.756506 2.015584 -1.345460 0.025971 0.937349 1.485357 0.356690 -0.620093 5.716171 0.000000 0.000000 0.000000 -9.418304 3.958914 36.464247 0.966004 1.895931 -12.427978 6.967144 -1.839984 5.022126 1.695900 -0.967900 2.813100 -53.782967 -27.986101 48.793395 155.680105 -31.171077 -112.796699 -1.266100 -0.443859 -47.172191 -7.125000 0.000000 0.000000 59.277159 21.593469 44.473165 -157.136069 27.974850 -113.471592 -0.681188 1.946608 -25.008554 7.125000 0.000000 0.000000 
-0.721827 18.368021 5.272228 -0.346325 -3.428529 0.162826 -13.344204 -11.079915 -4.794074 0.633750 6.396991 21.696956 -1.462519 11.063043 -18.000925 7.816500 -15.982600 -51.899200 2.754722 2.015381 -1.345047 0.026449 0.937246 1.485375 0.356699 -0.619998 5.715677 0.000000 0.000000 0.000000 -9.678307 4.014951 36.308712 1.035340 1.902198 -12.458064 6.807179 -1.848277 5.092418 1.630900 -0.967100 2.816400 -54.014345 -28.002541 48.844682 155.641698 -31.214259 -112.777114 -1.246424 -0.454895 -47.747447 -7.125000 0.000000 0.000000 59.517306 21.690557 44.421526 -157.044650 28.058335 -113.413668 -0.705241 1.943444 -25.208113 7.125000 0.000000 0.000000 
-0.720847 18.367629 5.274972 -0.353885 -3.460983 0.179951 -13.329515 -11.105571 -4.787174 0.633728 6.404151 21.707456 -1.463349 11.077237 -18.028949 7.812800 -15.979800 -51.885500 2.753217 2.015471 -1.344261 0.026722 0.937518 1.485560 0.356840 -0.619581 5.715486 0.000000 0.000000 0.000000 -9.832290 4.049168 36.186446 1.046753 1.901288 -12.470172 6.572580 -1.879442 5.151566 1.545200 -0.978900 2.820500 -54.247922 -28.082656 48.879487 155.604224 -31.247961 -112.765610 -1.209461 -0.469329 -48.419285 -7.125000 0.000000 0.000000 59.767990 21.770255 44.413050 -156.952754 28.140533 -113.358484 -0.717913 1.946448 -25.339515 7.125000 0.000000 0.000000 
-0.719475 18.367629 5.278795 -0.447560 -3.473332 0.175966 -13.249770 -11.137665 -4.762426 0.636523 6.412687 21.731151 -1.456393 11.069636 -18.085794 7.820000 -15.985300 -51.911800 2.753538 2.015336 -1.343536 0.026572 0.937605 1.485537 0.356942 -0.619590 5.715741 0.000000 0.000000 0.000000 -9.719152 4.012475 36.151822 0.976509 1.884917 -12.468430 6.514883 -1.908167 5.152079 1.524300 -0.993400 2.816400 -54.576195 -28.189948 48.934613 155.517795 -31.327652 -112.726981 -1.173287 -0.480622 -49.122710 -7.125000 0.000000 0.000000 59.970813 21.825770 44.415616 -156.868349 28.223759 -113.300521 -0.727003 1.976992 -25.399324 7.125000 0.000000 0.000000 
-0.717711 18.366845 5.283401 -0.511415 -3.449303 0.119383 -13.222105 -11.130718 -4.696925 0.642703 6.416261 21.756517 -1.430869 10.987534 -18.131126 7.816000 -15.982200 -51.897100 2.755840 2.014482 -1.343404 0.026170 0.936916 1.484979 0.356801 -0.620628 5.716162 0.000000 0.000000 0.000000 -9.410218 3.916610 36.199720 0.904989 1.864337 -12.522871 6.628221 -1.925285 5.309061 1.573800 -0.998700 2.868500 -55.037611 -28.228090 49.067227 155.405111 -31.441537 -112.668610 -1.150573 -0.483844 -49.597991 -7.125000 0.000000 0.000000 60.046946 21.918824 44.145298 -156.782913 28.331290 -113.217477 -0.805187 1.978960 -26.225694 7.125000 0.000000 0.000000 
-0.715848 18.365571 5.289085 -0.519329 -3.425696 0.032978 -13.264204 -11.059025 -4.623673 0.647687 6.414001 21.769691 -1.420758 10.943985 -18.118295 7.832100 -15.994400 -51.955600 2.758663 2.013095 -1.343300 0.025785 0.935762 1.484093 0.356537 -0.622233 5.716552 0.000000 0.000000 0.000000 -9.065991 3.811768 36.241139 0.853720 1.850447 -12.637188 6.777294 -1.934154 5.614037 1.648600 -0.998000 2.962900 -55.575231 -28.194992 49.276734 155.306092 -31.544247 -112.619468 -1.125498 -0.483527 -49.879985 -7.125000 0.000000 0.000000 60.065425 21.985682 43.614543 -156.694167 28.452802 -113.112426 -0.956666 1.926424 -27.913130 7.125000 0.000000 0.000000 
-0.713888 18.364297 5.294574 -0.528986 -3.435657 -0.008064 -13.282530 -10.934254 -4.607328 0.650665 6.410915 21.768489 -1.421905 10.923466 -18.050329 7.846400 -16.005100 -52.007500 2.760013 2.011901 -1.342767 0.025680 0.934876 1.483431 0.356385 -0.623391 5.716688 0.000000 0.000000 0.000000 -8.894054 3.758709 36.186533 0.820315 1.844553 -12.717733 6.768830 -1.956227 5.742952 1.665900 -1.010700 2.996700 -56.040766 -28.206254 49.481556 155.188573 -31.661480 -112.563859 -1.093336 -0.482675 -50.086597 -7.125000 0.000000 0.000000 60.159732 22.024715 43.303068 -156.518874 28.644880 -112.986779 -1.031421 1.884474 -28.963449 7.125000 0.000000 0.000000 
-0.711340 18.363807 5.299180 -0.515521 -3.469751 0.010611 -13.315412 -10.886341 -4.614230 0.650825 6.408157 21.763235 -1.423873 10.920133 -18.020246 7.831900 -15.994200 -51.955000 2.761070 2.010783 -1.342998 0.025727 0.933798 1.482799 0.356158 -0.624613 5.716505 0.000000 0.000000 0.000000 -8.834285 3.744296 36.127772 0.822755 1.849832 -12.739337 6.683204 -2.002873 5.865702 1.653100 -1.033200 3.043000 -56.425165 -28.340250 49.605333 154.991612 -31.860291 -112.463248 -1.068668 -0.474592 -50.171302 -7.125000 0.000000 0.000000 60.230185 22.148647 43.178127 -156.243570 28.935521 -112.829944 -1.027540 1.860044 -29.291462 7.125000 0.000000 0.000000 
-0.708302 18.364199 5.304081 -0.492123 -3.517432 0.034979 -13.364086 -10.877021 -4.605146 0.649040 6.403654 21.756668 -1.422514 10.928567 -18.056717 7.823400 -15.987800 -51.924000 2.762880 2.009601 -1.344214 0.025714 0.932355 1.482056 0.355801 -0.626198 5.716197 0.000000 0.000000 0.000000 -8.755922 3.732183 36.119177 0.829360 1.858714 -12.717945 6.720414 -2.027540 6.018720 1.674700 -1.040100 3.112400 -56.770602 -28.502863 49.673706 154.698868 -32.159911 -112.301189 -1.063466 -0.460553 -50.152964 -7.125000 0.000000 0.000000 60.228331 22.300035 42.992025 -155.972333 29.229355 -112.662743 -1.051371 1.820790 -29.654118 7.125000 0.000000 0.000000 
-0.706048 18.363513 5.309667 -0.499029 -3.558611 0.016874 -13.376473 -10.797216 -4.576124 0.648432 6.399937 21.750835 -1.416614 10.916372 -18.085171 7.842800 -16.002400 -51.994400 2.763955 2.008552 -1.344700 0.025765 0.931252 1.481460 0.355573 -0.627411 5.715954 0.000000 0.000000 0.000000 -8.708373 3.719120 36.068785 0.825707 1.858616 -12.713219 6.887086 -2.056595 6.122902 1.718700 -1.045500 3.152800 -57.079657 -28.538841 49.783985 154.414900 -32.451038 -112.138663 -1.058718 -0.452923 -50.218463 -7.125000 0.000000 0.000000 60.256877 22.382380 42.795599 -155.698506 29.520166 -112.483650 -1.099272 1.772864 -30.101709 7.125000 0.000000 0.000000 
-0.704382 18.361847 5.314959 -0.497010 -3.582419 -0.012396 -13.390005 -10.753015 -4.521616 0.647736 6.397518 21.744114 -1.412765 10.906199 -18.096776 7.846200 -16.004900 -52.006600 2.763898 2.007455 -1.344498 0.026041 0.930311 1.480930 0.355427 -0.628384 5.715585 0.000000 0.000000 0.000000 -8.769817 3.723478 35.942481 0.851823 1.857848 -12.746179 7.043330 -2.121388 6.223837 1.745800 -1.065300 3.180400 -57.353923 -28.513215 49.930501 154.170532 -32.699057 -112.002708 -1.033826 -0.451551 -50.430217 -7.125000 0.000000 0.000000 60.371136 22.416467 42.671823 -155.369578 29.852839 -112.280826 -1.124116 1.727453 -30.567436 7.125000 0.000000 0.000000 
